<svg width="80" height="80" viewBox="0 0 80 80" fill="none" xmlns="http://www.w3.org/2000/svg">
<ellipse cx="37.3334" cy="37.1429" rx="34.6667" ry="37.1429" fill="url(#paint0_linear_133_46)"/>
<path fill-rule="evenodd" clip-rule="evenodd" d="M14.9672 79.9998C14.9781 79.9998 14.9891 79.9998 15 79.9998C15.0109 79.9998 15.0219 79.9998 15.0328 79.9998H59.9464C59.9643 79.9999 59.9821 79.9999 60 79.9999C71.0457 79.9999 80 70.2637 80 58.2535C80 46.2434 71.0457 36.5072 60 36.5072C58.0646 36.5072 56.1935 36.8061 54.4235 37.3638C51.0913 30.3943 44.3903 25.634 36.6668 25.634C25.6211 25.634 16.6668 35.3702 16.6668 47.3804L16.667 47.4799C16.1196 47.4141 15.5634 47.3803 15 47.3803C6.71573 47.3803 0 54.6825 0 63.6901C0 72.0851 5.83337 78.9988 13.3333 79.9003V79.9998H14.9672Z" fill="url(#paint1_linear_133_46)"/>
<defs>
<linearGradient id="paint0_linear_133_46" x1="2.66675" y1="0" x2="37.0747" y2="32.114" gradientUnits="userSpaceOnUse">
<stop stop-color="#FAE26F"/>
<stop offset="1" stop-color="#F7BC3D"/>
</linearGradient>
<linearGradient id="paint1_linear_133_46" x1="20.1389" y1="58.9784" x2="45.5641" y2="88.2077" gradientUnits="userSpaceOnUse">
<stop stop-color="white"/>
<stop offset="1" stop-color="#BDE0F5"/>
</linearGradient>
</defs>
</svg>
